<mxfile host="Electron" agent="Mozilla/5.0 (Windows NT 10.0; Win64; x64) AppleWebKit/537.36 (KHTML, like Gecko) draw.io/28.0.6 Chrome/138.0.7204.100 Electron/37.2.3 Safari/537.36" version="28.0.6">
  <diagram name="Page-1" id="jRa60wuSDI2qEYhYIGw1">
    <mxGraphModel dx="772" dy="501" grid="1" gridSize="10" guides="1" tooltips="1" connect="1" arrows="1" fold="1" page="1" pageScale="1" pageWidth="850" pageHeight="1100" math="0" shadow="0">
      <root>
        <mxCell id="0" />
        <mxCell id="1" parent="0" />
        <mxCell id="a6cSThjE33P_qZXsLEnQ-1" value="Data Flow Diagram" style="text;html=1;align=center;verticalAlign=middle;resizable=0;points=[];autosize=1;strokeColor=none;fillColor=none;fontStyle=1;fontSize=20;" parent="1" vertex="1">
          <mxGeometry x="40" y="20" width="190" height="40" as="geometry" />
        </mxCell>
        <mxCell id="a6cSThjE33P_qZXsLEnQ-3" value="" style="rounded=0;whiteSpace=wrap;html=1;" parent="1" vertex="1">
          <mxGeometry x="52.5" y="80" width="165" height="400" as="geometry" />
        </mxCell>
        <mxCell id="a6cSThjE33P_qZXsLEnQ-4" value="Sources" style="rounded=1;whiteSpace=wrap;html=1;fontSize=14;strokeColor=none;" parent="1" vertex="1">
          <mxGeometry x="100" y="70" width="60" height="20" as="geometry" />
        </mxCell>
        <mxCell id="a6cSThjE33P_qZXsLEnQ-30" style="edgeStyle=orthogonalEdgeStyle;rounded=0;orthogonalLoop=1;jettySize=auto;html=1;entryX=0;entryY=0.5;entryDx=0;entryDy=0;" parent="1" source="a6cSThjE33P_qZXsLEnQ-5" target="a6cSThjE33P_qZXsLEnQ-21" edge="1">
          <mxGeometry relative="1" as="geometry" />
        </mxCell>
        <mxCell id="a6cSThjE33P_qZXsLEnQ-5" value="" style="image;aspect=fixed;html=1;points=[];align=center;fontSize=12;image=img/lib/azure2/general/Folder_Blank.svg;" parent="1" vertex="1">
          <mxGeometry x="90" y="160" width="60" height="48.69" as="geometry" />
        </mxCell>
        <mxCell id="a6cSThjE33P_qZXsLEnQ-6" value="" style="image;aspect=fixed;html=1;points=[];align=center;fontSize=12;image=img/lib/azure2/general/File.svg;" parent="1" vertex="1">
          <mxGeometry x="127.54" y="180" width="32.46" height="40" as="geometry" />
        </mxCell>
        <mxCell id="a6cSThjE33P_qZXsLEnQ-7" value="&lt;b&gt;CRM&lt;/b&gt;" style="text;html=1;align=center;verticalAlign=middle;resizable=0;points=[];autosize=1;strokeColor=none;fillColor=none;" parent="1" vertex="1">
          <mxGeometry x="95.5" y="220" width="50" height="30" as="geometry" />
        </mxCell>
        <mxCell id="a6cSThjE33P_qZXsLEnQ-39" style="edgeStyle=orthogonalEdgeStyle;rounded=0;orthogonalLoop=1;jettySize=auto;html=1;entryX=0;entryY=0.5;entryDx=0;entryDy=0;" parent="1" source="a6cSThjE33P_qZXsLEnQ-8" target="a6cSThjE33P_qZXsLEnQ-35" edge="1">
          <mxGeometry relative="1" as="geometry" />
        </mxCell>
        <mxCell id="a6cSThjE33P_qZXsLEnQ-41" style="edgeStyle=orthogonalEdgeStyle;rounded=0;orthogonalLoop=1;jettySize=auto;html=1;entryX=0;entryY=0.5;entryDx=0;entryDy=0;" parent="1" source="a6cSThjE33P_qZXsLEnQ-8" target="a6cSThjE33P_qZXsLEnQ-34" edge="1">
          <mxGeometry relative="1" as="geometry" />
        </mxCell>
        <mxCell id="a6cSThjE33P_qZXsLEnQ-49" style="edgeStyle=orthogonalEdgeStyle;rounded=0;orthogonalLoop=1;jettySize=auto;html=1;entryX=0;entryY=0.5;entryDx=0;entryDy=0;" parent="1" source="a6cSThjE33P_qZXsLEnQ-8" target="a6cSThjE33P_qZXsLEnQ-36" edge="1">
          <mxGeometry relative="1" as="geometry" />
        </mxCell>
        <mxCell id="a6cSThjE33P_qZXsLEnQ-8" value="" style="image;aspect=fixed;html=1;points=[];align=center;fontSize=12;image=img/lib/azure2/general/Folder_Blank.svg;" parent="1" vertex="1">
          <mxGeometry x="105" y="300" width="59" height="47.88" as="geometry" />
        </mxCell>
        <mxCell id="a6cSThjE33P_qZXsLEnQ-9" value="" style="image;aspect=fixed;html=1;points=[];align=center;fontSize=12;image=img/lib/azure2/general/File.svg;" parent="1" vertex="1">
          <mxGeometry x="136.54" y="328.12" width="32.46" height="40" as="geometry" />
        </mxCell>
        <mxCell id="a6cSThjE33P_qZXsLEnQ-10" value="ERP" style="text;html=1;align=center;verticalAlign=middle;resizable=0;points=[];autosize=1;strokeColor=none;fillColor=none;fontStyle=1" parent="1" vertex="1">
          <mxGeometry x="90" y="349.76" width="50" height="30" as="geometry" />
        </mxCell>
        <mxCell id="a6cSThjE33P_qZXsLEnQ-13" value="" style="rounded=1;whiteSpace=wrap;html=1;fillColor=none;strokeColor=#d79b00;" parent="1" vertex="1">
          <mxGeometry x="280" y="110" width="150" height="370" as="geometry" />
        </mxCell>
        <mxCell id="a6cSThjE33P_qZXsLEnQ-14" value="Bronze Layer" style="rounded=1;whiteSpace=wrap;html=1;fontSize=14;fillColor=#ffe6cc;strokeColor=#d79b00;" parent="1" vertex="1">
          <mxGeometry x="280" y="80" width="150" height="20" as="geometry" />
        </mxCell>
        <mxCell id="a6cSThjE33P_qZXsLEnQ-15" value="crm_cust_info" style="rounded=1;whiteSpace=wrap;html=1;fontSize=14;fillColor=#ffe6cc;strokeColor=#d79b00;" parent="1" vertex="1">
          <mxGeometry x="300" y="140" width="110" height="20" as="geometry" />
        </mxCell>
        <mxCell id="LrQN_TXFuNfY9xNI4IL4-10" style="edgeStyle=orthogonalEdgeStyle;rounded=0;orthogonalLoop=1;jettySize=auto;html=1;entryX=0;entryY=0.5;entryDx=0;entryDy=0;" parent="1" source="a6cSThjE33P_qZXsLEnQ-21" target="LrQN_TXFuNfY9xNI4IL4-4" edge="1">
          <mxGeometry relative="1" as="geometry" />
        </mxCell>
        <mxCell id="a6cSThjE33P_qZXsLEnQ-21" value="crm_prod_info" style="rounded=1;whiteSpace=wrap;html=1;fontSize=14;fillColor=#ffe6cc;strokeColor=#d79b00;" parent="1" vertex="1">
          <mxGeometry x="300" y="174.34" width="110" height="20" as="geometry" />
        </mxCell>
        <mxCell id="LrQN_TXFuNfY9xNI4IL4-11" style="edgeStyle=orthogonalEdgeStyle;rounded=0;orthogonalLoop=1;jettySize=auto;html=1;entryX=0;entryY=0.5;entryDx=0;entryDy=0;" parent="1" source="a6cSThjE33P_qZXsLEnQ-22" target="LrQN_TXFuNfY9xNI4IL4-5" edge="1">
          <mxGeometry relative="1" as="geometry" />
        </mxCell>
        <mxCell id="a6cSThjE33P_qZXsLEnQ-22" value="crm_sales_dets" style="rounded=1;whiteSpace=wrap;html=1;fontSize=14;fillColor=#ffe6cc;strokeColor=#d79b00;" parent="1" vertex="1">
          <mxGeometry x="300" y="208.69" width="110" height="20" as="geometry" />
        </mxCell>
        <mxCell id="a6cSThjE33P_qZXsLEnQ-31" style="edgeStyle=orthogonalEdgeStyle;rounded=0;orthogonalLoop=1;jettySize=auto;html=1;entryX=0.133;entryY=0.108;entryDx=0;entryDy=0;entryPerimeter=0;" parent="1" source="a6cSThjE33P_qZXsLEnQ-5" target="a6cSThjE33P_qZXsLEnQ-13" edge="1">
          <mxGeometry relative="1" as="geometry">
            <Array as="points">
              <mxPoint x="230" y="184" />
              <mxPoint x="230" y="150" />
            </Array>
          </mxGeometry>
        </mxCell>
        <mxCell id="a6cSThjE33P_qZXsLEnQ-32" style="edgeStyle=orthogonalEdgeStyle;rounded=0;orthogonalLoop=1;jettySize=auto;html=1;entryX=0.133;entryY=0.297;entryDx=0;entryDy=0;entryPerimeter=0;" parent="1" target="a6cSThjE33P_qZXsLEnQ-13" edge="1">
          <mxGeometry relative="1" as="geometry">
            <mxPoint x="230" y="180" as="sourcePoint" />
            <Array as="points">
              <mxPoint x="230" y="220" />
            </Array>
          </mxGeometry>
        </mxCell>
        <mxCell id="LrQN_TXFuNfY9xNI4IL4-12" style="edgeStyle=orthogonalEdgeStyle;rounded=0;orthogonalLoop=1;jettySize=auto;html=1;entryX=0;entryY=0.5;entryDx=0;entryDy=0;" parent="1" source="a6cSThjE33P_qZXsLEnQ-34" target="LrQN_TXFuNfY9xNI4IL4-6" edge="1">
          <mxGeometry relative="1" as="geometry" />
        </mxCell>
        <mxCell id="a6cSThjE33P_qZXsLEnQ-34" value="erp_cust_az12" style="rounded=1;whiteSpace=wrap;html=1;fontSize=14;fillColor=#ffe6cc;strokeColor=#d79b00;" parent="1" vertex="1">
          <mxGeometry x="300" y="280" width="110" height="20" as="geometry" />
        </mxCell>
        <mxCell id="LrQN_TXFuNfY9xNI4IL4-13" style="edgeStyle=orthogonalEdgeStyle;rounded=0;orthogonalLoop=1;jettySize=auto;html=1;entryX=0;entryY=0.5;entryDx=0;entryDy=0;" parent="1" source="a6cSThjE33P_qZXsLEnQ-35" target="LrQN_TXFuNfY9xNI4IL4-7" edge="1">
          <mxGeometry relative="1" as="geometry" />
        </mxCell>
        <mxCell id="a6cSThjE33P_qZXsLEnQ-35" value="erp_loc_a101" style="rounded=1;whiteSpace=wrap;html=1;fontSize=14;fillColor=#ffe6cc;strokeColor=#d79b00;" parent="1" vertex="1">
          <mxGeometry x="300" y="313.94000000000005" width="110" height="20" as="geometry" />
        </mxCell>
        <mxCell id="LrQN_TXFuNfY9xNI4IL4-14" value="" style="edgeStyle=orthogonalEdgeStyle;rounded=0;orthogonalLoop=1;jettySize=auto;html=1;" parent="1" source="a6cSThjE33P_qZXsLEnQ-36" target="LrQN_TXFuNfY9xNI4IL4-8" edge="1">
          <mxGeometry relative="1" as="geometry" />
        </mxCell>
        <mxCell id="a6cSThjE33P_qZXsLEnQ-36" value="erp_px_cat_g1v2" style="rounded=1;whiteSpace=wrap;html=1;fontSize=14;fillColor=#ffe6cc;strokeColor=#d79b00;" parent="1" vertex="1">
          <mxGeometry x="300" y="347.88" width="110" height="20" as="geometry" />
        </mxCell>
        <mxCell id="LrQN_TXFuNfY9xNI4IL4-1" value="" style="rounded=1;whiteSpace=wrap;html=1;fillColor=none;strokeColor=#666666;fontColor=#333333;" parent="1" vertex="1">
          <mxGeometry x="470" y="110" width="150" height="370" as="geometry" />
        </mxCell>
        <mxCell id="LrQN_TXFuNfY9xNI4IL4-2" value="Silver Layer" style="rounded=1;whiteSpace=wrap;html=1;fontSize=14;fillColor=#f5f5f5;strokeColor=#666666;fontColor=#333333;" parent="1" vertex="1">
          <mxGeometry x="470" y="80" width="150" height="20" as="geometry" />
        </mxCell>
        <mxCell id="LrQN_TXFuNfY9xNI4IL4-3" value="crm_cust_info" style="rounded=1;whiteSpace=wrap;html=1;fontSize=14;fillColor=#f5f5f5;strokeColor=#666666;fontColor=#333333;" parent="1" vertex="1">
          <mxGeometry x="490" y="140" width="110" height="20" as="geometry" />
        </mxCell>
        <mxCell id="LrQN_TXFuNfY9xNI4IL4-4" value="crm_prod_info" style="rounded=1;whiteSpace=wrap;html=1;fontSize=14;fillColor=#f5f5f5;strokeColor=#666666;fontColor=#333333;" parent="1" vertex="1">
          <mxGeometry x="490" y="174.34" width="110" height="20" as="geometry" />
        </mxCell>
        <mxCell id="LrQN_TXFuNfY9xNI4IL4-5" value="crm_sales_dets" style="rounded=1;whiteSpace=wrap;html=1;fontSize=14;fillColor=#f5f5f5;strokeColor=#666666;fontColor=#333333;" parent="1" vertex="1">
          <mxGeometry x="490" y="208.69" width="110" height="20" as="geometry" />
        </mxCell>
        <mxCell id="LrQN_TXFuNfY9xNI4IL4-6" value="erp_cust_az12" style="rounded=1;whiteSpace=wrap;html=1;fontSize=14;fillColor=#f5f5f5;strokeColor=#666666;fontColor=#333333;" parent="1" vertex="1">
          <mxGeometry x="490" y="280" width="110" height="20" as="geometry" />
        </mxCell>
        <mxCell id="LrQN_TXFuNfY9xNI4IL4-7" value="erp_loc_a101" style="rounded=1;whiteSpace=wrap;html=1;fontSize=14;fillColor=#f5f5f5;strokeColor=#666666;fontColor=#333333;" parent="1" vertex="1">
          <mxGeometry x="490" y="313.94000000000005" width="110" height="20" as="geometry" />
        </mxCell>
        <mxCell id="LrQN_TXFuNfY9xNI4IL4-8" value="erp_px_cat_g1v2" style="rounded=1;whiteSpace=wrap;html=1;fontSize=14;fillColor=#f5f5f5;strokeColor=#666666;fontColor=#333333;" parent="1" vertex="1">
          <mxGeometry x="490" y="347.88" width="110" height="20" as="geometry" />
        </mxCell>
        <mxCell id="LrQN_TXFuNfY9xNI4IL4-9" style="edgeStyle=orthogonalEdgeStyle;rounded=0;orthogonalLoop=1;jettySize=auto;html=1;entryX=0.133;entryY=0.108;entryDx=0;entryDy=0;entryPerimeter=0;" parent="1" source="a6cSThjE33P_qZXsLEnQ-15" target="LrQN_TXFuNfY9xNI4IL4-1" edge="1">
          <mxGeometry relative="1" as="geometry" />
        </mxCell>
        <mxCell id="_rc5JhdYrfhFZZm6Xi5J-1" value="" style="rounded=1;whiteSpace=wrap;html=1;fillColor=none;strokeColor=#666666;fontColor=#333333;" vertex="1" parent="1">
          <mxGeometry x="680" y="110" width="150" height="370" as="geometry" />
        </mxCell>
        <mxCell id="_rc5JhdYrfhFZZm6Xi5J-2" value="Gold Layer" style="rounded=1;whiteSpace=wrap;html=1;fontSize=14;fillColor=#fff2cc;strokeColor=#d6b656;" vertex="1" parent="1">
          <mxGeometry x="680" y="80" width="150" height="20" as="geometry" />
        </mxCell>
        <mxCell id="_rc5JhdYrfhFZZm6Xi5J-3" value="fact_sales" style="rounded=1;whiteSpace=wrap;html=1;fontSize=14;fillColor=#fff2cc;strokeColor=#d6b656;" vertex="1" parent="1">
          <mxGeometry x="700" y="170" width="110" height="20" as="geometry" />
        </mxCell>
        <mxCell id="_rc5JhdYrfhFZZm6Xi5J-4" value="dim_customers" style="rounded=1;whiteSpace=wrap;html=1;fontSize=14;fillColor=#fff2cc;strokeColor=#d6b656;" vertex="1" parent="1">
          <mxGeometry x="700" y="263.03000000000003" width="110" height="20" as="geometry" />
        </mxCell>
        <mxCell id="_rc5JhdYrfhFZZm6Xi5J-5" value="dim_products" style="rounded=1;whiteSpace=wrap;html=1;fontSize=14;fillColor=#fff2cc;strokeColor=#d6b656;" vertex="1" parent="1">
          <mxGeometry x="700" y="354.76" width="110" height="20" as="geometry" />
        </mxCell>
        <mxCell id="_rc5JhdYrfhFZZm6Xi5J-11" value="" style="endArrow=classic;html=1;rounded=0;jumpStyle=gap;" edge="1" parent="1">
          <mxGeometry width="50" height="50" relative="1" as="geometry">
            <mxPoint x="600" y="150" as="sourcePoint" />
            <mxPoint x="700" y="270" as="targetPoint" />
            <Array as="points">
              <mxPoint x="600" y="150" />
            </Array>
          </mxGeometry>
        </mxCell>
        <mxCell id="_rc5JhdYrfhFZZm6Xi5J-12" value="" style="endArrow=classic;html=1;rounded=0;entryX=0.133;entryY=0.189;entryDx=0;entryDy=0;entryPerimeter=0;jumpStyle=gap;" edge="1" parent="1" target="_rc5JhdYrfhFZZm6Xi5J-1">
          <mxGeometry width="50" height="50" relative="1" as="geometry">
            <mxPoint x="600" y="220" as="sourcePoint" />
            <mxPoint x="730" y="360" as="targetPoint" />
            <Array as="points">
              <mxPoint x="600" y="220" />
            </Array>
          </mxGeometry>
        </mxCell>
        <mxCell id="_rc5JhdYrfhFZZm6Xi5J-13" value="" style="endArrow=classic;html=1;rounded=0;entryX=0.133;entryY=0.703;entryDx=0;entryDy=0;entryPerimeter=0;jumpStyle=gap;" edge="1" parent="1" target="_rc5JhdYrfhFZZm6Xi5J-1">
          <mxGeometry width="50" height="50" relative="1" as="geometry">
            <mxPoint x="600" y="190" as="sourcePoint" />
            <mxPoint x="730" y="360" as="targetPoint" />
            <Array as="points">
              <mxPoint x="600" y="190" />
            </Array>
          </mxGeometry>
        </mxCell>
        <mxCell id="_rc5JhdYrfhFZZm6Xi5J-14" value="" style="endArrow=classic;html=1;rounded=0;entryX=0;entryY=0.75;entryDx=0;entryDy=0;jumpStyle=gap;" edge="1" parent="1" target="_rc5JhdYrfhFZZm6Xi5J-4">
          <mxGeometry width="50" height="50" relative="1" as="geometry">
            <mxPoint x="600" y="290" as="sourcePoint" />
            <mxPoint x="730" y="290" as="targetPoint" />
            <Array as="points">
              <mxPoint x="600" y="290" />
              <mxPoint x="610" y="290" />
            </Array>
          </mxGeometry>
        </mxCell>
        <mxCell id="_rc5JhdYrfhFZZm6Xi5J-16" value="" style="endArrow=classic;html=1;rounded=0;entryX=0;entryY=1;entryDx=0;entryDy=0;jumpStyle=gap;" edge="1" parent="1" target="_rc5JhdYrfhFZZm6Xi5J-4">
          <mxGeometry width="50" height="50" relative="1" as="geometry">
            <mxPoint x="600" y="320" as="sourcePoint" />
            <mxPoint x="730" y="320" as="targetPoint" />
            <Array as="points" />
          </mxGeometry>
        </mxCell>
        <mxCell id="_rc5JhdYrfhFZZm6Xi5J-18" value="" style="endArrow=classic;html=1;rounded=0;exitX=1;exitY=0.5;exitDx=0;exitDy=0;jumpStyle=gap;" edge="1" parent="1" source="LrQN_TXFuNfY9xNI4IL4-8">
          <mxGeometry width="50" height="50" relative="1" as="geometry">
            <mxPoint x="630" y="397" as="sourcePoint" />
            <mxPoint x="700" y="370" as="targetPoint" />
            <Array as="points" />
          </mxGeometry>
        </mxCell>
      </root>
    </mxGraphModel>
  </diagram>
</mxfile>
